<?xml version="1.0" encoding="utf-8"?>
<!-- Generator: Adobe Illustrator 19.2.1, SVG Export Plug-In . SVG Version: 6.00 Build 0)  -->
<svg version="1.1" id="Layer_1" xmlns="http://www.w3.org/2000/svg" xmlns:xlink="http://www.w3.org/1999/xlink" x="0px" y="0px"
	 viewBox="0 0 492.5 492.5" style="enable-background:new 0 0 492.5 492.5;" xml:space="preserve">
<style type="text/css">
	.st0{fill:#97BFCC;}
	.st1{fill:#FFFFFF;}
</style>
<path class="st0" d="M447.13,37.04l-349.36,0c-19.53,0-35.37,15.83-35.37,35.37v0c0,19.53,15.83,35.37,35.37,35.37l349.36,0
	c19.53,0,35.37-15.83,35.37-35.37v0C482.49,52.88,466.66,37.04,447.13,37.04z"/>
<path class="st0" d="M447.13,210.93l-252.53,0c-19.53,0-35.37,15.83-35.37,35.37v0c0,19.53,15.83,35.37,35.37,35.37l252.53,0
	c19.53,0,35.37-15.83,35.37-35.37v0C482.49,226.77,466.66,210.93,447.13,210.93z"/>
<path class="st0" d="M447.13,384.73l-349.36,0c-19.53,0-35.37,15.83-35.37,35.37v0c0,19.53,15.83,35.37,35.37,35.37l349.36,0
	c19.53,0,35.37-15.83,35.37-35.37v0C482.49,400.56,466.66,384.73,447.13,384.73z"/>
<path class="st1" d="M72.41,10.01c-34.4,0-62.4,28-62.4,62.4s28,62.4,62.4,62.4s62.4-28,62.4-62.4S106.81,10.01,72.41,10.01z"/>
<path class="st1" d="M176.92,183.9c-34.4,0-62.4,28-62.4,62.4s28,62.4,62.4,62.4s62.4-28,62.4-62.4S211.32,183.9,176.92,183.9z"/>
<path class="st1" d="M72.41,357.69c-34.4,0-62.4,28-62.4,62.4s28,62.4,62.4,62.4s62.4-28,62.4-62.4S106.81,357.69,72.41,357.69z"/>
</svg>
